<svg xmlns="http://www.w3.org/2000/svg" width="32" height="32" viewBox="0 0 32 32">
  <g id="icon-circle-pinterest" transform="translate(-21 -475)">
    <path id="Path_1559" data-name="Path 1559" d="M16,0A16,16,0,1,1,0,16,16,16,0,0,1,16,0Z" transform="translate(21 475)" fill="#ea0000"/>
    <path id="_01-33-7" data-name="01-33-7" d="M62.662,18.524a4.7,4.7,0,0,1-2.322-1.106,11.61,11.61,0,0,1-1.827,5.068.52.52,0,0,1-.925-.291c-.154-3.077.905-5.516,1.43-8.092-.992-1.667.12-5.025,2.208-4.2,2.572,1.016-2.228,6.2,1,6.852,3.364.675,4.737-5.837,2.653-7.955-3.014-3.06-8.773-.07-8.065,4.31.134.832.832,1.213.745,2.038a.733.733,0,0,1-1.049.588c-1.333-.625-1.747-1.991-1.684-3.728a6.486,6.486,0,0,1,5.85-5.974c3.635-.4,7.043,1.336,7.514,4.754.531,3.859-1.64,8.035-5.523,7.734Z" transform="translate(-24.26 477.668)" fill="#fff"/>
  </g>
</svg>
