<svg xmlns="http://www.w3.org/2000/svg" width="32" height="32" viewBox="0 0 32 32">
  <g id="icon-circle-facebook" transform="translate(-21 -710)">
    <path id="Path_1564" data-name="Path 1564" d="M16,0A16,16,0,1,1,0,16,16,16,0,0,1,16,0Z" transform="translate(21 710)" fill="#3b5998"/>
    <g id="_002-facebook-logo" data-name="002-facebook-logo" transform="translate(32 718)">
      <path id="Path_70" data-name="Path 70" d="M31.092,0,28.845,0a3.946,3.946,0,0,0-4.156,4.264V6.23H22.43a.353.353,0,0,0-.353.353V9.432a.353.353,0,0,0,.353.353h2.259v7.188a.353.353,0,0,0,.353.353H27.99a.353.353,0,0,0,.353-.353V9.785h2.641a.353.353,0,0,0,.353-.353V6.584a.354.354,0,0,0-.353-.353H28.344V4.563c0-.8.191-1.208,1.234-1.208h1.514A.353.353,0,0,0,31.445,3V.357A.353.353,0,0,0,31.092,0Z" transform="translate(-22.077)" fill="#fff"/>
    </g>
  </g>
</svg>
