<svg xmlns="http://www.w3.org/2000/svg" xmlns:xlink="http://www.w3.org/1999/xlink" width="32" height="32" viewBox="0 0 32 32">
  <defs>
    <linearGradient id="linear-gradient" y1="1" x2="1" gradientUnits="objectBoundingBox">
      <stop offset="0" stop-color="#fdf497"/>
      <stop offset="0.14" stop-color="#fdf497"/>
      <stop offset="0.414" stop-color="#fd5949"/>
      <stop offset="0.636" stop-color="#d6249f"/>
      <stop offset="1" stop-color="#285aeb"/>
    </linearGradient>
  </defs>
  <g id="icon-circle-instagram" transform="translate(-21 -559)">
    <path id="Path_1561" data-name="Path 1561" d="M16,0A16,16,0,1,1,0,16,16,16,0,0,1,16,0Z" transform="translate(21 559)" fill="url(#linear-gradient)"/>
    <g id="instagram_1_" data-name="instagram (1)" transform="translate(28.188 566)">
      <path id="Path_74" data-name="Path 74" d="M12.287,0H5.213A5.219,5.219,0,0,0,0,5.213v7.073A5.219,5.219,0,0,0,5.213,17.5h7.073A5.219,5.219,0,0,0,17.5,12.287V5.213A5.219,5.219,0,0,0,12.287,0ZM15.74,12.287a3.453,3.453,0,0,1-3.453,3.453H5.213a3.453,3.453,0,0,1-3.453-3.453V5.213A3.453,3.453,0,0,1,5.213,1.76h7.073A3.453,3.453,0,0,1,15.74,5.213v7.073Z" fill="#fff"/>
      <path id="Path_75" data-name="Path 75" d="M137.526,133a4.526,4.526,0,1,0,4.526,4.526A4.531,4.531,0,0,0,137.526,133Zm0,7.292a2.766,2.766,0,1,1,2.766-2.766A2.766,2.766,0,0,1,137.526,140.292Z" transform="translate(-128.776 -128.776)" fill="#fff"/>
      <ellipse id="Ellipse_5" data-name="Ellipse 5" cx="1.085" cy="1.085" rx="1.085" ry="1.085" transform="translate(12.2 3.173)" fill="#fff"/>
    </g>
  </g>
</svg>
