<svg id="e1svrhm8a3zi1" xmlns="http://www.w3.org/2000/svg" xmlns:xlink="http://www.w3.org/1999/xlink" viewBox="0 0 677 186" shape-rendering="geometricPrecision" text-rendering="geometricPrecision"><path id="e1svrhm8a3zi2" d="M514.300000,95.200000L505.400000,86.300000C504.700000,85.600000,504.700000,84.600000,505.400000,83.900000L505.400000,83.900000C506.100000,83.200000,507.100000,83.200000,507.800000,83.900000L517.900000,94C518.500000,94.700000,518.500000,95.700000,517.900000,96.300000L507.700000,106.500000C507.100000,107.200000,506,107.300000,505.300000,106.700000C504.600000,106.100000,504.500000,105,505.100000,104.300000C505.100000,104.200000,505.200000,104.200000,505.300000,104.100000L514.300000,95.200000Z" fill="rgb(234,0,0)" stroke="none" stroke-width="1"/><path id="e1svrhm8a3zi3" d="M334.300000,95.200000L325.400000,86.300000C324.700000,85.600000,324.700000,84.600000,325.400000,83.900000L325.400000,83.900000C326.100000,83.200000,327.100000,83.200000,327.800000,83.900000L337.900000,94C338.500000,94.600000,338.600000,95.700000,337.900000,96.300000L327.700000,106.500000C327.100000,107.200000,326,107.300000,325.300000,106.700000C324.600000,106.100000,324.500000,105,325.100000,104.300000C325.100000,104.200000,325.200000,104.200000,325.300000,104.100000L334.300000,95.200000Z" fill="rgb(234,0,0)" stroke="none" stroke-width="1"/><path id="e1svrhm8a3zi4" d="M154.300000,95.200000L145.400000,86.300000C144.700000,85.600000,144.700000,84.600000,145.400000,83.900000L145.400000,83.900000C146.100000,83.200000,147.100000,83.200000,147.800000,83.900000L157.900000,94C158.500000,94.600000,158.600000,95.700000,158,96.300000L147.800000,106.500000C147.200000,107.200000,146.100000,107.300000,145.400000,106.700000C144.700000,106.100000,144.600000,105,145.200000,104.300000C145.200000,104.200000,145.300000,104.200000,145.400000,104.100000L154.300000,95.200000Z" fill="rgb(234,0,0)" stroke="none" stroke-width="1"/><g id="e1svrhm8a3zi5"><path id="e1svrhm8a3zi6" d="M272.600000,101.500000L272.600000,86.500000L279.600000,86.500000L269.400000,68.800000L269.400000,68.400000C269.400000,67.900000,269.400000,67.400000,269.400000,66.900000C269.400000,48.600000,254.500000,33.800000,236.200000,33.700000L236.200000,31C256.100000,31,272.200000,47.100000,272.200000,67C272.200000,67.400000,272.200000,67.800000,272.200000,68.200000L284.400000,89.300000L275.300000,89.300000L275.300000,101.500000C275.300000,107.400000,270.500000,112.200000,264.600000,112.200000L251.200000,112.200000L251.200000,123.200000L248.400000,123.200000L248.400000,109.300000L264.600000,109.300000C269,109.400000,272.600000,105.900000,272.600000,101.500000ZM205.800000,54C200.600000,66.400000,203.400000,80.800000,212.900000,90.300000L213.300000,90.700000L213.300000,123.200000L210.500000,123.200000L210.500000,91.900000C200.500000,81.500000,197.600000,66.200000,203.200000,52.900000L205.800000,54Z" fill="rgb(51,52,56)" stroke="none" stroke-width="1"/><path id="e1svrhm8a3zi7" d="M218.500000,78.100000L214,83.400000L221.100000,90.500000L226.600000,85.900000C228.300000,86.800000,230.100000,87.500000,232,88L232.600000,94.900000L242.600000,94.900000L243.200000,87.800000C245,87.300000,246.800000,86.500000,248.400000,85.500000L253.700000,90L260.800000,82.900000L256.200000,77.400000C257.100000,75.700000,257.800000,73.900000,258.300000,72.100000L265.200000,71.500000L265.200000,61.500000L258.100000,60.900000C257.600000,59.100000,256.800000,57.300000,255.800000,55.700000L260.300000,50.400000L253.200000,43.300000L247.700000,47.900000C246,47,244.200000,46.300000,242.400000,45.800000L241.800000,38.900000L231.800000,38.900000L231,46C229.200000,46.500000,227.400000,47.300000,225.800000,48.300000L220.500000,43.800000L213.400000,50.900000L218,56.300000C217.100000,58,216.400000,59.800000,216,61.600000L209.100000,62.200000L209.100000,72.200000L216.200000,72.800000C216.800000,74.700000,217.500000,76.500000,218.500000,78.100000ZM222,78.300000L221.400000,77.400000C220.100000,75.500000,219.200000,73.400000,218.700000,71.200000L218.500000,70.200000L211.900000,69.600000L211.900000,64.700000L218.300000,64.200000L218.500000,63.200000C218.900000,61,219.800000,58.800000,220.900000,56.900000L221.400000,56L217.100000,51L220.600000,47.500000L225.500000,51.700000L226.400000,51.100000C228.300000,49.800000,230.400000,48.900000,232.600000,48.400000L233.600000,48.200000L234.200000,41.600000L239.100000,41.600000L239.600000,48L240.600000,48.200000C242.800000,48.600000,245,49.500000,246.900000,50.600000L247.800000,51.100000L252.800000,46.800000L256.300000,50.300000L252.100000,55.200000L252.700000,56.100000C254,58,254.900000,60.100000,255.400000,62.300000L255.600000,63.300000L262.200000,63.800000L262.200000,68.700000L255.800000,69.200000L255.600000,70.200000C255.200000,72.400000,254.400000,74.600000,253.200000,76.500000L252.700000,77.400000L257,82.400000L253.600000,85.900000L248.700000,81.700000L247.800000,82.300000C245.900000,83.600000,243.800000,84.500000,241.600000,85L240.600000,85.200000L240,92L235.100000,92L234.600000,85.600000L233.600000,85.400000C231.400000,85,229.200000,84.100000,227.300000,83L226.400000,82.500000L221.400000,86.800000L217.900000,83.300000L222,78.300000ZM227.400000,66.800000C227.400000,72.100000,231.700000,76.500000,237.100000,76.500000C242.400000,76.500000,246.800000,72.200000,246.800000,66.800000C246.800000,61.400000,242.500000,57.100000,237.100000,57.100000C237.100000,57.100000,237.100000,57.100000,237.100000,57.100000C231.700000,57.100000,227.400000,61.500000,227.400000,66.800000ZM230.200000,66.800000C230.200000,63,233.300000,59.900000,237.100000,59.900000C240.900000,59.900000,244,63,244,66.800000C244,70.600000,240.900000,73.700000,237.100000,73.700000C233.300000,73.700000,230.200000,70.600000,230.200000,66.800000Z" fill="rgb(51,52,56)" stroke="none" stroke-width="1"/><path id="e1svrhm8a3zi8" d="M203.900000,34.900000L198.800000,37.800000L200.200000,40.200000L205.300000,37.300000L205.100000,36.900000C206.300000,38.500000,208.200000,39.600000,210.200000,39.900000L209.800000,39.900000L209.800000,45.700000L212.600000,45.700000L212.600000,39.800000L212.200000,39.800000C214.200000,39.500000,216.100000,38.500000,217.300000,36.800000L217.100000,37.200000L222.200000,40.200000L223.600000,37.800000L218.500000,34.900000L218.300000,35.300000C218.700000,34.400000,218.900000,33.400000,218.900000,32.400000C218.900000,31.400000,218.700000,30.400000,218.300000,29.500000L218.500000,29.900000L223.600000,27L222.200000,24.600000L217.100000,27.500000L217.300000,27.900000C216.100000,26.300000,214.200000,25.200000,212.200000,24.900000L212.600000,24.900000L212.600000,19L209.800000,19L209.800000,24.900000L210.200000,24.900000C208.200000,25.200000,206.300000,26.300000,205.100000,27.900000L205.300000,27.500000L200.200000,24.600000L198.800000,27L203.900000,29.900000L204.100000,29.500000C203.700000,30.400000,203.500000,31.400000,203.500000,32.400000C203.500000,33.400000,203.700000,34.400000,204.100000,35.300000L203.900000,34.900000ZM206.300000,32.400000C206.300000,29.800000,208.400000,27.600000,211.100000,27.600000C213.700000,27.600000,215.900000,29.700000,215.900000,32.400000C215.900000,35,213.800000,37.200000,211.100000,37.200000C211.100000,37.200000,211.100000,37.200000,211.100000,37.200000C208.500000,37.200000,206.300000,35,206.300000,32.400000Z" fill="rgb(51,52,56)" stroke="none" stroke-width="1"/><path id="e1svrhm8a3zi9" d="M196,161.600000C192.800000,161.600000,190.300000,159.900000,190.300000,157L193.600000,157C193.600000,158.200000,194.600000,159.100000,195.800000,159C195.800000,159,195.900000,159,195.900000,159C197.300000,159,198.200000,158.200000,198.200000,157.100000C198.200000,153.800000,190.300000,155.800000,190.300000,150.200000C190.300000,147.400000,192.600000,145.800000,195.700000,145.800000C198.800000,145.800000,201,147.400000,201.200000,150.200000L197.800000,150.200000C197.700000,149.100000,196.700000,148.300000,195.600000,148.400000C195.600000,148.400000,195.600000,148.400000,195.600000,148.400000C194.400000,148.400000,193.500000,149,193.500000,150.200000C193.500000,153.300000,201.400000,151.600000,201.400000,157C201.400000,159.400000,199.400000,161.600000,196,161.600000ZM204.300000,151.800000L202.800000,151.800000L202.800000,149.300000L204.300000,149.300000L204.300000,146.300000L207.400000,146.300000L207.400000,149.300000L210.100000,149.300000L210.100000,151.800000L207.400000,151.800000L207.400000,157.700000C207.400000,158.500000,207.700000,158.900000,208.700000,158.900000L210.100000,158.900000L210.100000,161.500000L208.200000,161.500000C205.900000,161.500000,204.300000,160.500000,204.300000,157.700000L204.300000,151.800000ZM215.400000,161.400000L212.300000,161.400000L212.300000,149.200000L215.400000,149.200000L215.400000,151.100000C216.200000,149.800000,217.600000,149,219.100000,149L219.100000,152.200000L218.300000,152.200000C216.500000,152.200000,215.400000,152.900000,215.400000,155.300000L215.400000,161.400000ZM225.700000,149C227.300000,149,228.800000,149.700000,229.700000,150.900000L229.700000,149.200000L232.800000,149.200000L232.800000,161.400000L229.700000,161.400000L229.700000,159.600000C228.800000,160.900000,227.200000,161.600000,225.600000,161.600000C222.500000,161.600000,220,159.100000,220,155.300000C220,151.500000,222.600000,149,225.700000,149ZM226.500000,151.700000C224.700000,151.700000,223.300000,153.200000,223.300000,155C223.300000,155.100000,223.300000,155.200000,223.300000,155.300000C223.100000,157.100000,224.500000,158.800000,226.300000,158.900000C226.400000,158.900000,226.400000,158.900000,226.500000,158.900000C228.500000,158.700000,229.900000,157,229.800000,155C229.600000,153.200000,228.300000,151.900000,226.500000,151.700000ZM236.200000,151.800000L234.800000,151.800000L234.800000,149.300000L236.200000,149.300000L236.200000,146.300000L239.300000,146.300000L239.300000,149.300000L242,149.300000L242,151.800000L239.300000,151.800000L239.300000,157.700000C239.300000,158.500000,239.600000,158.900000,240.600000,158.900000L242,158.900000L242,161.500000L240.100000,161.500000C237.800000,161.500000,236.200000,160.500000,236.200000,157.700000L236.200000,151.800000ZM249.300000,161.600000C246,161.700000,243.300000,159.200000,243.200000,155.900000C243.200000,155.700000,243.200000,155.500000,243.200000,155.300000C243.200000,151.400000,245.700000,149,249.300000,149C252.500000,148.800000,255.100000,151.300000,255.300000,154.400000C255.300000,154.600000,255.300000,154.800000,255.300000,155C255.300000,155.400000,255.300000,155.800000,255.200000,156.200000L246.300000,156.200000C246.300000,157.800000,247.600000,159,249.200000,159C249.200000,159,249.200000,159,249.200000,159C250.200000,159.100000,251.200000,158.500000,251.600000,157.500000L254.900000,157.500000C254.200000,160.100000,251.900000,161.700000,249.300000,161.600000ZM246.300000,154.200000L252.100000,154.200000C252.100000,152.700000,250.800000,151.500000,249.300000,151.600000C249.300000,151.600000,249.200000,151.600000,249.200000,151.600000C247.600000,151.500000,246.400000,152.700000,246.300000,154.200000L246.300000,154.200000ZM262.200000,149C263.800000,148.900000,265.300000,149.700000,266.200000,150.900000L266.200000,149.200000L269.300000,149.200000L269.300000,161.500000C269.300000,164.800000,267.300000,167.400000,263.300000,167.400000C259.900000,167.400000,257.500000,165.700000,257.200000,162.900000L260.300000,162.900000C260.800000,164.100000,262,164.900000,263.300000,164.700000C265,164.700000,266.300000,163.700000,266.300000,161.500000L266.300000,159.600000C265.400000,160.900000,263.900000,161.600000,262.300000,161.600000C259.200000,161.600000,256.700000,159.100000,256.700000,155.300000C256.700000,151.500000,259.100000,149,262.200000,149ZM263,151.700000C261.200000,151.700000,259.800000,153.200000,259.800000,155C259.800000,155.100000,259.800000,155.200000,259.800000,155.300000C259.600000,157.100000,261,158.800000,262.800000,158.900000C262.900000,158.900000,262.900000,158.900000,263,158.900000C265,158.700000,266.400000,157,266.300000,155C266.100000,153.200000,264.700000,151.900000,263,151.700000ZM280.600000,149.200000L283.900000,149.200000L276.400000,167.200000L273.100000,167.200000L275.700000,161.100000L270.800000,149.200000L274.300000,149.200000L277.400000,157.700000L280.600000,149.200000Z" fill="rgb(51,52,56)" stroke="none" stroke-width="1"/></g><g id="e1svrhm8a3zi10"><path id="e1svrhm8a3zi11" d="M601.700000,35.100000C620.700000,35.100000,636.100000,50.500000,636.100000,69.500000C636.100000,69.900000,636.100000,70.300000,636.100000,70.600000L646.500000,88.700000C646.900000,89.400000,646.700000,90.300000,646,90.700000C645.800000,90.800000,645.500000,90.900000,645.200000,90.900000L639,90.900000L639,102.400000C639,108.100000,634.400000,112.800000,628.600000,112.800000L616,112.800000L616,123.200000L613.100000,123.200000L613.100000,111.400000C613.100000,110.600000,613.800000,109.900000,614.600000,109.900000L628.700000,109.900000C632.800000,109.900000,636.100000,106.600000,636.100000,102.500000L636.100000,89.500000C636.100000,88.700000,636.700000,88,637.500000,88C637.500000,88,637.500000,88,637.500000,88L642.600000,88L633.200000,71.800000C633.100000,71.600000,633,71.300000,633,71C633,70.500000,633,70,633,69.600000C633,52.200000,618.900000,38.100000,601.500000,38.100000C584.100000,38.100000,570,52.200000,570,69.600000C570,77.900000,573.300000,85.900000,579.200000,91.800000C579.500000,92.100000,579.600000,92.400000,579.600000,92.800000L579.600000,123.200000L576.600000,123.200000L576.600000,93.400000C563.400000,79.700000,563.800000,57.900000,577.600000,44.700000C584.200000,38.600000,592.800000,35.100000,601.700000,35.100000L601.700000,35.100000Z" fill="rgb(51,52,56)" stroke="none" stroke-width="1"/><path id="e1svrhm8a3zi12" d="M587.300000,62.700000L587.100000,77.900000C587.100000,78.400000,587.400000,78.900000,587.800000,79.200000L601,86.800000L601,86.800000L601.200000,86.900000L601.400000,87C601.500000,87,601.700000,87,601.800000,87C602.100000,87,602.300000,86.900000,602.500000,86.800000L615.600000,79.300000C616,79,616.300000,78.600000,616.300000,78L616.500000,62.800000L616.500000,62.800000C616.500000,62.700000,616.500000,62.700000,616.500000,62.600000C616.500000,62.500000,616.500000,62.500000,616.500000,62.400000C616.500000,62.300000,616.500000,62.300000,616.400000,62.200000C616.400000,62.100000,616.400000,62.100000,616.300000,62C616.300000,62,616.200000,61.900000,616.200000,61.900000C616.200000,61.800000,616.100000,61.800000,616.100000,61.700000C616.100000,61.700000,616,61.600000,616,61.600000C615.900000,61.500000,615.900000,61.500000,615.800000,61.500000L615.800000,61.500000L602.600000,54C602.100000,53.700000,601.600000,53.700000,601.100000,54L588,61.500000L587.900000,61.600000L587.700000,61.800000C587.700000,61.800000,587.600000,61.900000,587.600000,61.900000L587.500000,62.100000L587.400000,62.300000C587.400000,62.400000,587.400000,62.400000,587.300000,62.500000C587.200000,62.600000,587.300000,62.600000,587.300000,62.700000C587.300000,62.600000,587.300000,62.700000,587.300000,62.700000ZM612.100000,62.800000L609.100000,64.500000L602,68.600000L601.600000,68.400000L591.800000,62.700000L601.900000,56.900000L612.100000,62.800000ZM603.300000,83L603.400000,77.100000L603.500000,71.200000L613.600000,65.400000L613.500000,77.200000L603.300000,83ZM590.100000,77.100000L590.200000,65.300000L600.500000,71.200000L600.400000,83L590.100000,77.100000Z" fill="rgb(51,52,56)" stroke="none" stroke-width="1"/><g id="e1svrhm8a3zi13"><circle id="e1svrhm8a3zi14" r="24.200000" transform="matrix(1 0 0 1 601.79999999999995 70.20000000000000)" fill="none" stroke="rgb(51,52,56)" stroke-width="3" stroke-miterlimit="10" stroke-dasharray="4.003200,4.003200"/></g><polygon id="e1svrhm8a3zi15" points="554.700000,61.400000 556.800000,63.500000 550.600000,69.600000 563.400000,69.600000 563.400000,72.600000 550.600000,72.600000 556.800000,78.700000 554.700000,80.800000 545,71.100000" fill="rgb(51,52,56)" stroke="none" stroke-width="1"/><polygon id="e1svrhm8a3zi16" points="561.200000,44.400000 561.200000,30.700000 574.800000,30.700000 574.900000,33.600000 566.200000,33.600000 575.200000,42.700000 573.100000,44.800000 564.100000,35.700000 564.100000,44.400000" fill="rgb(51,52,56)" stroke="none" stroke-width="1"/><polygon id="e1svrhm8a3zi17" points="602.600000,19.200000 602.600000,32 599.700000,32 599.700000,19.200000 593.500000,25.300000 591.500000,23.200000 601.200000,13.500000 610.800000,23.200000 608.800000,25.300000" fill="rgb(51,52,56)" stroke="none" stroke-width="1"/><polygon id="e1svrhm8a3zi18" points="638.600000,34.700000 629.600000,43.800000 627.500000,41.700000 636.500000,32.700000 627.900000,32.600000 627.900000,29.700000 641.600000,29.700000 641.600000,43.400000 638.600000,43.400000" fill="rgb(51,52,56)" stroke="none" stroke-width="1"/><polygon id="e1svrhm8a3zi19" points="640.300000,71.200000 640.300000,68.200000 653.100000,68.200000 646.900000,62.100000 649,60 658.700000,69.700000 649,79.400000 646.900000,77.300000 653.100000,71.200000" fill="rgb(51,52,56)" stroke="none" stroke-width="1"/><path id="e1svrhm8a3zi20" d="M553.100000,146.100000L556.600000,146.100000L561.500000,157.500000L566.400000,146.100000L569.900000,146.100000L569.900000,161.500000L566.800000,161.500000L566.800000,151.500000L562.700000,161.500000L560.400000,161.500000L556.300000,151.500000L556.300000,161.500000L553.200000,161.500000L553.100000,146.100000ZM577.700000,149C579.300000,149,580.800000,149.700000,581.700000,150.900000L581.700000,149.200000L584.800000,149.200000L584.800000,161.400000L581.700000,161.400000L581.700000,159.600000C580.800000,160.900000,579.300000,161.600000,577.700000,161.600000C574.600000,161.600000,572.200000,159.100000,572.200000,155.300000C572.200000,151.500000,574.600000,149,577.700000,149ZM578.500000,151.700000C576.700000,151.700000,575.300000,153.200000,575.300000,155C575.300000,155.100000,575.300000,155.200000,575.300000,155.300000C575.100000,157.100000,576.500000,158.800000,578.300000,158.900000C578.400000,158.900000,578.400000,158.900000,578.500000,158.900000C580.500000,158.700000,581.900000,157,581.800000,155C581.600000,153.200000,580.200000,151.900000,578.500000,151.700000ZM590.800000,161.400000L587.700000,161.400000L587.700000,149.200000L590.800000,149.200000L590.800000,151.100000C591.600000,149.800000,593,149,594.500000,149L594.500000,152.200000L593.700000,152.200000C591.900000,152.200000,590.800000,152.900000,590.800000,155.300000L590.800000,161.400000ZM596.200000,145.100000L599.300000,145.100000L599.300000,154.400000L603.400000,149.200000L607.400000,149.200000L602,155.300000L607.400000,161.400000L603.400000,161.400000L599.300000,156.200000L599.300000,161.400000L596.200000,161.400000L596.200000,145.100000ZM613.600000,161.600000C610.300000,161.700000,607.600000,159.200000,607.500000,155.900000C607.500000,155.700000,607.500000,155.500000,607.500000,155.300000C607.500000,151.400000,610,149,613.600000,149C616.800000,148.800000,619.400000,151.300000,619.600000,154.400000C619.600000,154.600000,619.600000,154.800000,619.600000,155C619.600000,155.400000,619.600000,155.800000,619.500000,156.200000L610.600000,156.200000C610.600000,157.800000,611.900000,159,613.500000,159C613.500000,159,613.500000,159,613.500000,159C614.500000,159.100000,615.500000,158.500000,615.900000,157.500000L619.200000,157.500000C618.500000,160.100000,616.200000,161.700000,613.600000,161.600000ZM610.600000,154.200000L616.400000,154.200000C616.400000,152.700000,615.100000,151.500000,613.600000,151.600000C613.600000,151.600000,613.500000,151.600000,613.500000,151.600000C612,151.600000,610.700000,152.700000,610.600000,154.200000L610.600000,154.200000ZM622,151.800000L620.500000,151.800000L620.500000,149.300000L622,149.300000L622,146.300000L625.100000,146.300000L625.100000,149.300000L627.800000,149.300000L627.800000,151.800000L625.100000,151.800000L625.100000,157.700000C625.100000,158.500000,625.400000,158.900000,626.400000,158.900000L627.800000,158.900000L627.800000,161.500000L625.900000,161.500000C623.600000,161.500000,622,160.500000,622,157.700000L622,151.800000ZM629.500000,146C629.500000,145,630.300000,144.200000,631.300000,144.200000C631.300000,144.200000,631.400000,144.200000,631.400000,144.200000C632.400000,144.100000,633.300000,144.900000,633.300000,145.900000C633.400000,146.900000,632.600000,147.800000,631.600000,147.800000C631.500000,147.800000,631.400000,147.800000,631.300000,147.800000C630.300000,147.800000,629.500000,147.100000,629.400000,146.100000C629.600000,146.100000,629.500000,146,629.500000,146ZM629.900000,149.300000L633,149.300000L633,161.500000L629.900000,161.500000L629.900000,149.300000ZM644.400000,154.700000C644.400000,152.700000,643.300000,151.700000,641.700000,151.700000C640.100000,151.700000,638.900000,152.800000,638.900000,154.700000L638.900000,161.400000L635.800000,161.400000L635.800000,149.200000L638.900000,149.200000L638.900000,150.700000C639.800000,149.600000,641.100000,149,642.600000,149C645.400000,149,647.500000,150.900000,647.500000,154.200000L647.500000,161.300000L644.400000,161.300000L644.400000,154.700000ZM655,149C656.600000,148.900000,658.100000,149.700000,659,150.900000L659,149.200000L662.100000,149.200000L662.100000,161.500000C662.100000,164.800000,660.100000,167.400000,656.100000,167.400000C652.700000,167.400000,650.300000,165.700000,650,162.900000L653.100000,162.900000C653.600000,164.100000,654.800000,164.900000,656.100000,164.700000C657.800000,164.700000,659.100000,163.700000,659.100000,161.500000L659.100000,159.600000C658.200000,160.900000,656.700000,161.600000,655.100000,161.600000C652,161.600000,649.500000,159.100000,649.500000,155.300000C649.500000,151.500000,651.900000,149,655,149ZM655.800000,151.700000C654,151.700000,652.600000,153.200000,652.600000,155C652.600000,155.100000,652.600000,155.200000,652.600000,155.300000C652.400000,157.100000,653.800000,158.800000,655.600000,158.900000C655.700000,158.900000,655.700000,158.900000,655.800000,158.900000C657.800000,158.700000,659.200000,157,659.100000,155C658.900000,153.200000,657.500000,151.900000,655.800000,151.700000Z" fill="rgb(51,52,56)" stroke="none" stroke-width="1"/></g><g id="e1svrhm8a3zi21"><path id="e1svrhm8a3zi22" d="M19.400000,146.100000L22.500000,146.100000L22.500000,161.500000L19.400000,161.500000L19.400000,146.100000ZM34,154.700000C34,152.700000,32.900000,151.700000,31.300000,151.700000C29.700000,151.700000,28.500000,152.800000,28.500000,154.700000L28.500000,161.400000L25.400000,161.400000L25.400000,149.200000L28.500000,149.200000L28.500000,150.700000C29.400000,149.600000,30.800000,149,32.200000,149C35,149,37.100000,150.900000,37.100000,154.200000L37.100000,161.300000L34,161.300000L34,154.700000ZM44.500000,161.600000C41.400000,161.600000,39.300000,159.800000,39.200000,157.500000L42.300000,157.500000C42.500000,158.500000,43.500000,159.300000,44.500000,159.100000C45.700000,159.100000,46.400000,158.500000,46.400000,157.800000C46.400000,155.600000,39.500000,157,39.500000,152.500000C39.500000,150.500000,41.300000,148.900000,44.300000,148.900000C47.300000,148.900000,49,150.500000,49.200000,152.900000L46.200000,152.900000C46.100000,151.900000,45.200000,151.200000,44.200000,151.300000C43,151.300000,42.500000,151.800000,42.500000,152.500000C42.500000,154.700000,49.300000,153.300000,49.300000,157.800000C49.300000,160,47.500000,161.600000,44.500000,161.600000ZM51.300000,146C51.300000,145,52.100000,144.100000,53.100000,144C54.100000,144,55,144.800000,55.100000,145.800000C55.100000,146.800000,54.300000,147.700000,53.300000,147.800000C53.300000,147.800000,53.200000,147.800000,53.200000,147.800000C52.200000,147.800000,51.400000,147.100000,51.300000,146.100000C51.300000,146.100000,51.300000,146,51.300000,146ZM51.600000,149.300000L54.700000,149.300000L54.700000,161.500000L51.600000,161.500000L51.600000,149.300000ZM62.300000,149C63.900000,148.900000,65.400000,149.700000,66.300000,150.900000L66.300000,149.200000L69.400000,149.200000L69.400000,161.500000C69.400000,164.800000,67.400000,167.400000,63.400000,167.400000C60,167.400000,57.600000,165.700000,57.300000,162.900000L60.400000,162.900000C60.900000,164.100000,62.100000,164.900000,63.400000,164.700000C65.100000,164.700000,66.400000,163.700000,66.400000,161.500000L66.400000,159.600000C65.500000,160.900000,64,161.600000,62.400000,161.600000C59.300000,161.600000,56.800000,159.100000,56.800000,155.300000C56.800000,151.500000,59.300000,149,62.300000,149ZM63.100000,151.700000C61.300000,151.700000,59.900000,153.200000,59.900000,155C59.900000,155.100000,59.900000,155.200000,59.900000,155.300000C59.700000,157.100000,61.100000,158.800000,62.900000,158.900000C63,158.900000,63,158.900000,63.100000,158.900000C65.100000,158.700000,66.500000,157,66.400000,155C66.200000,153.200000,64.900000,151.900000,63.100000,151.700000ZM72.400000,145.100000L75.500000,145.100000L75.500000,150.700000C76.400000,149.600000,77.800000,148.900000,79.300000,149C82.100000,149,84.100000,150.900000,84.100000,154.200000L84.100000,161.300000L81,161.300000L81,154.600000C81,152.600000,79.900000,151.600000,78.300000,151.600000C76.700000,151.600000,75.500000,152.700000,75.500000,154.600000L75.500000,161.300000L72.400000,161.300000L72.400000,145.100000ZM87,151.800000L85.600000,151.800000L85.600000,149.300000L87,149.300000L87,146.300000L90.100000,146.300000L90.100000,149.300000L92.800000,149.300000L92.800000,151.800000L90.100000,151.800000L90.100000,157.700000C90.100000,158.500000,90.400000,158.900000,91.400000,158.900000L92.800000,158.900000L92.800000,161.500000L90.900000,161.500000C88.600000,161.500000,87,160.500000,87,157.700000L87,151.800000ZM99.500000,161.600000C96.500000,161.600000,94.300000,159.800000,94.200000,157.500000L97.300000,157.500000C97.500000,158.500000,98.500000,159.300000,99.500000,159.100000C100.700000,159.100000,101.400000,158.500000,101.400000,157.800000C101.400000,155.600000,94.500000,157,94.500000,152.500000C94.500000,150.500000,96.300000,148.900000,99.300000,148.900000C102.300000,148.900000,104,150.500000,104.200000,152.900000L101.300000,152.900000C101.200000,151.900000,100.300000,151.200000,99.300000,151.300000C98.100000,151.300000,97.600000,151.800000,97.600000,152.500000C97.600000,154.700000,104.400000,153.300000,104.400000,157.800000C104.300000,160,102.500000,161.600000,99.500000,161.600000Z" fill="rgb(51,52,56)" stroke="none" stroke-width="1"/><path id="e1svrhm8a3zi23" d="M47.300000,120.300000L75.400000,120.300000L75.400000,123.200000L47.300000,123.200000L47.300000,120.300000ZM43.300000,51.400000L43.300000,53.900000C43.300000,56.200000,45.200000,58,47.400000,58L49.700000,58L49.700000,55.100000L47.400000,55.100000C46.700000,55.100000,46.200000,54.600000,46.200000,53.900000C46.200000,53.900000,46.200000,53.900000,46.200000,53.900000L46.200000,51.400000L43.300000,51.400000ZM86.400000,58.100000C89,58.100000,91.200000,60.200000,91.200000,62.900000L94.100000,62.900000C94.100000,59.200000,91.400000,56,87.800000,55.300000C88.600000,54.100000,89.100000,52.700000,89.100000,51.300000C89.100000,47.600000,86.200000,44.600000,82.500000,44.400000C81.900000,39.100000,77,35.300000,71.700000,36C66.800000,36.600000,63.200000,40.700000,63.200000,45.700000L63.200000,104.300000L59.700000,104.300000L59.700000,45.600000C59.700000,40.300000,55.400000,35.900000,50.100000,35.900000C45.200000,35.900000,41,39.500000,40.400000,44.400000C36.700000,44.600000,33.900000,47.600000,33.800000,51.300000C33.800000,52.700000,34.300000,54.100000,35.100000,55.300000C31.400000,56,28.800000,59.100000,28.800000,62.900000L31.700000,62.900000C31.700000,60.300000,33.800000,58.100000,36.500000,58.100000L39,58.100000L39,58.100000C39.500000,58.200000,40.100000,58.300000,40.600000,58.300000L40.600000,55.400000C38.400000,55.400000,36.600000,53.600000,36.600000,51.400000C36.600000,49.200000,38.400000,47.400000,40.600000,47.400000L41.800000,47.400000L41.800000,47.400000L46,47.400000C48.200000,47.400000,50,49.200000,50,51.400000L53,51.400000C53,47.600000,49.800000,44.500000,46,44.500000L43.200000,44.500000C43.900000,40.800000,47.400000,38.400000,51.100000,39C54.300000,39.600000,56.700000,42.400000,56.700000,45.700000L56.700000,66.400000L31.700000,66.400000C31.700000,66,31.700000,65.800000,31.700000,65.800000L28.700000,65.800000C28.700000,66,29.100000,81.200000,41.500000,97.200000C43,99.200000,43.600000,102.200000,43.900000,104.700000L41.100000,104.700000L41.100000,107.600000L44.400000,107.600000L44.400000,112.600000L41.100000,112.600000L41.100000,115.500000L81.600000,115.500000L81.600000,112.600000L47.300000,112.600000L47.300000,107.600000L81.700000,107.600000L81.700000,104.700000L78.900000,104.700000C79.200000,102.200000,79.800000,99.200000,81.300000,97.200000C93.700000,81.100000,94,65.800000,94,65.700000L91.100000,65.700000C91.100000,65.700000,91.100000,65.900000,91.100000,66.300000L66.600000,66.300000L66.600000,69.200000L90.700000,69.200000C89,78.800000,84.900000,87.800000,78.900000,95.400000C77.100000,97.800000,76.300000,101.400000,75.900000,104.300000L66.100000,104.300000L66.100000,45.600000C66.100000,41.900000,69.200000,38.800000,72.900000,38.800000C76.100000,38.800000,78.900000,41.100000,79.500000,44.300000L76.700000,44.300000C72.900000,44.300000,69.800000,47.400000,69.800000,51.200000L72.700000,51.200000C72.700000,49,74.500000,47.200000,76.700000,47.200000L80.900000,47.200000L80.900000,47.200000L82,47.200000C84.200000,47.200000,86,49,86,51.200000C86,53.400000,84.200000,55.200000,82,55.200000L82,58.100000C82.500000,58.100000,83.100000,58,83.600000,57.900000L83.600000,57.900000L86.400000,58.100000ZM32,69.200000L56.700000,69.200000L56.700000,104.200000L46.800000,104.200000C46.500000,101.300000,45.700000,97.800000,43.900000,95.300000C37.800000,87.700000,33.700000,78.700000,32,69.200000ZM76.500000,53.900000C76.500000,54.600000,76,55.100000,75.300000,55.100000L75.300000,55.100000L73,55.100000L73,58L75.300000,58C77.600000,58,79.400000,56.100000,79.400000,53.900000L79.400000,51.400000L76.500000,51.400000L76.500000,53.900000Z" fill="rgb(51,52,56)" stroke="none" stroke-width="1"/><g id="e1svrhm8a3zi24"><line id="e1svrhm8a3zi25" x1="25" y1="62.400000" x2="18" y2="62.400000" transform="matrix(1 0 0 1 -1 0.10000000000000)" fill="none" stroke="rgb(51,52,56)" stroke-width="3" stroke-miterlimit="10" stroke-dasharray="7"/><line id="e1svrhm8a3zi26" x1="105" y1="62.500000" x2="98" y2="62.500000" fill="none" stroke="rgb(51,52,56)" stroke-width="3" stroke-miterlimit="10" stroke-dasharray="7"/><line id="e1svrhm8a3zi27" x1="103.500000" y1="51.200000" x2="96.800000" y2="53" fill="none" stroke="rgb(51,52,56)" stroke-width="3" stroke-miterlimit="10" stroke-dasharray="7"/><line id="e1svrhm8a3zi28" x1="99.200000" y1="40.800000" x2="93.200000" y2="44.300000" fill="none" stroke="rgb(51,52,56)" stroke-width="3" stroke-miterlimit="10" stroke-dasharray="7"/><line id="e1svrhm8a3zi29" x1="92.300000" y1="31.700000" x2="87.300000" y2="36.700000" fill="none" stroke="rgb(51,52,56)" stroke-width="3" stroke-miterlimit="10" stroke-dasharray="7"/><line id="e1svrhm8a3zi30" x1="83.400000" y1="24.800000" x2="79.900000" y2="30.900000" fill="none" stroke="rgb(51,52,56)" stroke-width="3" stroke-miterlimit="10" stroke-dasharray="7"/><line id="e1svrhm8a3zi31" x1="73.100000" y1="20.500000" x2="71.300000" y2="27.300000" fill="none" stroke="rgb(51,52,56)" stroke-width="3" stroke-miterlimit="10" stroke-dasharray="7"/><line id="e1svrhm8a3zi32" x1="61.600000" y1="18.900000" x2="61.600000" y2="25.900000" fill="none" stroke="rgb(51,52,56)" stroke-width="3" stroke-miterlimit="10" stroke-dasharray="7"/><line id="e1svrhm8a3zi33" x1="50.200000" y1="20.400000" x2="52" y2="27.200000" fill="none" stroke="rgb(51,52,56)" stroke-width="3" stroke-miterlimit="10" stroke-dasharray="7"/><line id="e1svrhm8a3zi34" x1="39.600000" y1="24.900000" x2="43.100000" y2="30.900000" fill="none" stroke="rgb(51,52,56)" stroke-width="3" stroke-miterlimit="10" stroke-dasharray="7"/><line id="e1svrhm8a3zi35" x1="31" y1="31.400000" x2="35.900000" y2="36.400000" fill="none" stroke="rgb(51,52,56)" stroke-width="3" stroke-miterlimit="10" stroke-dasharray="7"/><line id="e1svrhm8a3zi36" x1="24" y1="40.500000" x2="30" y2="44" fill="none" stroke="rgb(51,52,56)" stroke-width="3" stroke-miterlimit="10" stroke-dasharray="7"/><line id="e1svrhm8a3zi37" x1="19.500000" y1="51" x2="26.300000" y2="52.800000" transform="matrix(1 0 0 1 -0.10000000000000 0.20000000000000)" fill="none" stroke="rgb(51,52,56)" stroke-width="3" stroke-miterlimit="10" stroke-dasharray="7"/></g></g><g id="e1svrhm8a3zi38"><path id="e1svrhm8a3zi39" d="M378.700000,161.400000L372.100000,161.400000L372.100000,146L378.400000,146C381.600000,146,383.400000,147.700000,383.400000,150C383.500000,151.600000,382.400000,153.100000,380.800000,153.500000C382.600000,153.900000,383.800000,155.400000,383.800000,157.200000C383.800000,159.700000,381.900000,161.400000,378.700000,161.400000ZM378,148.600000L375.200000,148.600000L375.200000,152.500000L378,152.500000C379.500000,152.500000,380.300000,151.800000,380.300000,150.600000C380.300000,149.400000,379.400000,148.600000,378,148.600000ZM378.200000,154.800000L375.200000,154.800000L375.200000,158.900000L378.300000,158.900000C379.800000,158.900000,380.700000,158.200000,380.700000,156.900000C380.700000,155.600000,379.700000,154.800000,378.200000,154.800000L378.200000,154.800000ZM389.300000,161.400000L386.200000,161.400000L386.200000,149.200000L389.300000,149.200000L389.300000,151.100000C390.100000,149.800000,391.500000,149,393.100000,149L393.100000,152.200000L392.300000,152.200000C390.500000,152.200000,389.400000,152.900000,389.400000,155.300000L389.400000,161.400000ZM399.700000,149C401.300000,149,402.800000,149.700000,403.700000,150.900000L403.700000,149.200000L406.800000,149.200000L406.800000,161.400000L403.700000,161.400000L403.700000,159.600000C402.800000,160.900000,401.200000,161.600000,399.700000,161.600000C396.600000,161.600000,394.200000,159.100000,394.200000,155.300000C394.200000,151.500000,396.600000,149,399.700000,149ZM400.500000,151.700000C398.700000,151.700000,397.300000,153.200000,397.300000,155C397.300000,155.100000,397.300000,155.200000,397.300000,155.300000C397.100000,157.100000,398.500000,158.800000,400.300000,158.900000C400.400000,158.900000,400.400000,158.900000,400.500000,158.900000C402.500000,158.700000,403.900000,157,403.800000,155C403.500000,153.200000,402.200000,151.900000,400.500000,151.700000ZM418.200000,154.700000C418.200000,152.700000,417.100000,151.700000,415.500000,151.700000C413.900000,151.700000,412.700000,152.800000,412.700000,154.700000L412.700000,161.400000L409.600000,161.400000L409.600000,149.200000L412.700000,149.200000L412.700000,150.700000C413.600000,149.600000,414.900000,149,416.400000,149C419.200000,149,421.300000,150.900000,421.300000,154.200000L421.300000,161.300000L418.200000,161.300000L418.200000,154.700000ZM428.900000,149C430.500000,149,431.900000,149.700000,432.900000,150.900000L432.900000,145.100000L436,145.100000L436,161.400000L432.900000,161.400000L432.900000,159.600000C432,160.900000,430.500000,161.700000,428.900000,161.600000C425.800000,161.600000,423.300000,159.100000,423.300000,155.300000C423.300000,151.500000,425.800000,149,428.900000,149ZM429.700000,151.700000C427.900000,151.700000,426.500000,153.200000,426.500000,155C426.500000,155.100000,426.500000,155.200000,426.500000,155.300000C426.300000,157.100000,427.700000,158.800000,429.500000,158.900000C429.600000,158.900000,429.600000,158.900000,429.700000,158.900000C431.700000,158.700000,433.100000,157,433,155C432.800000,153.200000,431.400000,151.900000,429.700000,151.700000ZM438.600000,146C438.600000,145,439.400000,144.100000,440.400000,144C441.400000,144,442.300000,144.800000,442.400000,145.800000C442.400000,146.800000,441.600000,147.700000,440.600000,147.800000C440.600000,147.800000,440.500000,147.800000,440.500000,147.800000C439.500000,147.900000,438.600000,147.100000,438.600000,146C438.600000,146.100000,438.600000,146,438.600000,146ZM438.900000,149.300000L442,149.300000L442,161.500000L438.900000,161.500000L438.900000,149.300000ZM453.400000,154.700000C453.400000,152.700000,452.300000,151.700000,450.700000,151.700000C449.100000,151.700000,447.900000,152.800000,447.900000,154.700000L447.900000,161.400000L444.800000,161.400000L444.800000,149.200000L447.900000,149.200000L447.900000,150.700000C448.800000,149.600000,450.200000,149,451.600000,149C454.400000,149,456.500000,150.900000,456.500000,154.200000L456.500000,161.300000L453.400000,161.300000L453.400000,154.700000ZM464.100000,149C465.700000,148.900000,467.200000,149.700000,468.100000,150.900000L468.100000,149.200000L471.200000,149.200000L471.200000,161.500000C471.200000,164.800000,469.200000,167.400000,465.200000,167.400000C461.800000,167.400000,459.400000,165.700000,459.100000,162.900000L462.200000,162.900000C462.700000,164.100000,463.900000,164.900000,465.200000,164.700000C466.900000,164.700000,468.200000,163.700000,468.200000,161.500000L468.200000,159.600000C467.300000,160.900000,465.800000,161.600000,464.200000,161.600000C461.100000,161.600000,458.600000,159.100000,458.600000,155.300000C458.600000,151.500000,461,149,464.100000,149ZM464.900000,151.700000C463.100000,151.700000,461.700000,153.200000,461.700000,155C461.700000,155.100000,461.700000,155.200000,461.700000,155.300000C461.500000,157.100000,462.900000,158.800000,464.700000,158.900000C464.800000,158.900000,464.800000,158.900000,464.900000,158.900000C466.900000,158.700000,468.300000,157,468.200000,155C468,153.200000,466.600000,151.900000,464.900000,151.700000Z" fill="rgb(51,52,56)" stroke="none" stroke-width="1"/><path id="e1svrhm8a3zi40" d="M394.100000,90.700000L394.500000,91.100000L394.500000,123.200000L391.600000,123.200000L391.600000,92.300000C385.200000,85.700000,381.600000,76.800000,381.600000,67.600000C381.600000,58.100000,385.400000,49.100000,392.100000,42.400000L394.200000,44.300000C394.200000,44.300000,394.100000,44.400000,394.100000,44.400000C381.400000,57.200000,381.400000,77.900000,394.100000,90.700000ZM452.900000,68.800000C452.900000,68.400000,452.900000,68,452.900000,67.600000C452.900000,58.200000,449.200000,49.100000,442.500000,42.500000L440.400000,44.400000C446.600000,50.500000,450.100000,58.900000,450,67.600000C450,68.100000,450,68.600000,450,69.100000L450,69.500000L460,86.800000L453.100000,86.800000L453.100000,101.800000C453.100000,106.100000,449.600000,109.600000,445.300000,109.600000L429.200000,109.600000L429.200000,123.300000L432.100000,123.300000L432.100000,112.400000L445.200000,112.400000C451.100000,112.400000,455.900000,107.600000,455.900000,101.700000L455.900000,89.700000L464.900000,89.700000L452.900000,68.800000Z" fill="rgb(51,52,56)" stroke="none" stroke-width="1"/><path id="e1svrhm8a3zi41" d="M451.200000,34.600000C451.500000,34.500000,451.700000,34.200000,451.900000,34C452,33.800000,452.100000,33.500000,452,33.300000C452,33.100000,452,33,451.900000,32.800000C451.800000,32.600000,451.600000,32.300000,451.400000,32.200000L442.500000,20.800000C442.200000,20.400000,441.800000,20.200000,441.300000,20.200000L393.300000,20.200000C392.800000,20.200000,392.400000,20.400000,392.100000,20.800000L383.200000,32.200000C383,32.400000,382.800000,32.600000,382.700000,32.800000C382.600000,33,382.600000,33.100000,382.600000,33.300000C382.600000,33.600000,382.700000,33.800000,382.800000,34.100000C382.900000,34.400000,383.200000,34.600000,383.500000,34.800000L416.300000,64.500000L416.400000,64.500000C416.500000,64.600000,416.600000,64.600000,416.700000,64.700000L416.800000,64.800000C416.900000,64.900000,417.100000,64.900000,417.300000,64.900000C417.500000,64.900000,417.600000,64.900000,417.800000,64.800000L417.900000,64.700000C418,64.700000,418.100000,64.600000,418.200000,64.500000L418.300000,64.500000L451.200000,34.600000ZM441.400000,23.900000L444.500000,28L447.500000,31.800000L435.200000,31.800000L441.400000,23.900000ZM438.400000,23L431.900000,31.300000L421.700000,23L438.400000,23ZM427.800000,31.800000L407,31.800000L417.400000,23.300000L427.800000,31.800000ZM413.200000,23L403,31.300000L396.400000,23L413.200000,23ZM393.400000,23.900000L399.600000,31.800000L387.300000,31.800000L393.400000,23.900000ZM388.200000,34.800000L402,34.800000L412.900000,57.200000L388.200000,34.800000ZM417.400000,60L405.200000,34.800000L429.700000,34.800000L417.400000,60ZM432.900000,34.800000L446.700000,34.800000L422,57.100000L432.900000,34.800000Z" fill="rgb(51,52,56)" stroke="none" stroke-width="1"/><path id="e1svrhm8a3zi42" d="M397.300000,53.800000L399.800000,55.300000C394.100000,64.800000,397.100000,77.200000,406.700000,82.900000C416.200000,88.600000,428.600000,85.600000,434.300000,76C436.200000,72.900000,437.200000,69.300000,437.200000,65.600000C437.200000,62.400000,436.500000,59.300000,435,56.400000L437.600000,55.100000C439.300000,58.300000,440.100000,61.900000,440.100000,65.600000C440,78.300000,429.700000,88.500000,417,88.500000C404.300000,88.500000,394,78.100000,394.100000,65.400000C394.100000,61.300000,395.200000,57.300000,397.300000,53.800000Z" transform="matrix(1 0 0 1 0 -1)" fill="rgb(51,52,56)" stroke="none" stroke-width="1"/><path id="e1svrhm8a3zi43" d="M405.900000,65.700000L408.800000,65.700000C408.800000,70.300000,412.500000,74,417.100000,74C421.700000,74,425.400000,70.300000,425.400000,65.700000L428.300000,65.700000C428.100000,71.900000,423,76.700000,416.800000,76.500000C410.800000,76.300000,406,71.600000,405.900000,65.700000L405.900000,65.700000Z" transform="matrix(1 0 0 1 0 1)" fill="rgb(51,52,56)" stroke="none" stroke-width="1"/></g><script><![CDATA[!function(t,n){"object"==typeof exports&&"undefined"!=typeof module?module.exports=n():"function"==typeof define&&define.amd?define(n):(t=t||self).__SVGATOR_PLAYER__=n()}(this,(function(){"use strict";function t(n){return(t="function"==typeof Symbol&&"symbol"==typeof Symbol.iterator?function(t){return typeof t}:function(t){return t&&"function"==typeof Symbol&&t.constructor===Symbol&&t!==Symbol.prototype?"symbol":typeof t})(n)}function n(t,n){if(!(t instanceof n))throw new TypeError("Cannot call a class as a function")}function e(t,n){for(var e=0;e<n.length;e++){var r=n[e];r.enumerable=r.enumerable||!1,r.configurable=!0,"value"in r&&(r.writable=!0),Object.defineProperty(t,r.key,r)}}function r(t,n,r){return n&&e(t.prototype,n),r&&e(t,r),t}function i(t){return(i=Object.setPrototypeOf?Object.getPrototypeOf:function(t){return t.__proto__||Object.getPrototypeOf(t)})(t)}function u(t,n){return(u=Object.setPrototypeOf||function(t,n){return t.__proto__=n,t})(t,n)}function o(t,n){return!n||"object"!=typeof n&&"function"!=typeof n?function(t){if(void 0===t)throw new ReferenceError("this hasn't been initialised - super() hasn't been called");return t}(t):n}function a(t){var n=function(){if("undefined"==typeof Reflect||!Reflect.construct)return!1;if(Reflect.construct.sham)return!1;if("function"==typeof Proxy)return!0;try{return Date.prototype.toString.call(Reflect.construct(Date,[],(function(){}))),!0}catch(t){return!1}}();return function(){var e,r=i(t);if(n){var u=i(this).constructor;e=Reflect.construct(r,arguments,u)}else e=r.apply(this,arguments);return o(this,e)}}function l(t,n,e){return(l="undefined"!=typeof Reflect&&Reflect.get?Reflect.get:function(t,n,e){var r=function(t,n){for(;!Object.prototype.hasOwnProperty.call(t,n)&&null!==(t=i(t)););return t}(t,n);if(r){var u=Object.getOwnPropertyDescriptor(r,n);return u.get?u.get.call(e):u.value}})(t,n,e||t)}var f=Math.abs;function s(t){return t}function c(t,n,e){var r=1-e;return 3*e*r*(t*r+n*e)+e*e*e}function h(){var t=arguments.length>0&&void 0!==arguments[0]?arguments[0]:0,n=arguments.length>1&&void 0!==arguments[1]?arguments[1]:0,e=arguments.length>2&&void 0!==arguments[2]?arguments[2]:1,r=arguments.length>3&&void 0!==arguments[3]?arguments[3]:1;return t<0||t>1||e<0||e>1?null:f(t-n)<=1e-5&&f(e-r)<=1e-5?s:function(i){if(i<=0)return t>0?i*n/t:0===n&&e>0?i*r/e:0;if(i>=1)return e<1?1+(i-1)*(r-1)/(e-1):1===e&&t<1?1+(i-1)*(n-1)/(t-1):1;for(var u,o=0,a=1;o<a;){var l=c(t,e,u=(o+a)/2);if(f(i-l)<1e-5)break;l<i?o=u:a=u}return c(n,r,u)}}function v(){return 1}function d(t){return 1===t?1:0}function y(){var t=arguments.length>0&&void 0!==arguments[0]?arguments[0]:1,n=arguments.length>1&&void 0!==arguments[1]?arguments[1]:0;if(1===t){if(0===n)return d;if(1===n)return v}var e=1/t;return function(t){return t>=1?1:(t+=n*e)-t%e}}function g(t){var n=arguments.length>1&&void 0!==arguments[1]?arguments[1]:2;if(Number.isInteger(t))return t;var e=Math.pow(10,n);return Math.round(t*e)/e}var p=Math.PI/180;function m(t,n,e){return t>=.5?e:n}function b(t,n,e){return 0===t||n===e?n:t*(e-n)+n}function w(t,n,e){var r=b(t,n,e);return r<=0?0:r}function x(t,n,e){return 0===t?n:1===t?e:{x:b(t,n.x,e.x),y:b(t,n.y,e.y)}}function k(t,n,e){return 0===t?n:1===t?e:{x:w(t,n.x,e.x),y:w(t,n.y,e.y)}}function A(t,n,e){var r=function(t,n,e){return Math.round(b(t,n,e))}(t,n,e);return r<=0?0:r>=255?255:r}function _(t,n,e){return 0===t?n:1===t?e:{r:A(t,n.r,e.r),g:A(t,n.g,e.g),b:A(t,n.b,e.b),a:b(t,null==n.a?1:n.a,null==e.a?1:e.a)}}function S(t,n,e){if(0===t)return n;if(1===t)return e;var r=n.length;if(r!==e.length)return m(t,n,e);for(var i=[],u=0;u<r;u++)i.push(_(t,n[u],e[u]));return i}function M(t,n,e){var r=n.length;if(r!==e.length)return m(t,n,e);for(var i=new Array(r),u=0;u<r;u++)i[u]=b(t,n[u],e[u]);return i}function O(t,n){for(var e=[],r=0;r<t;r++)e.push(n);return e}function E(t,n){if(--n<=0)return t;var e=(t=Object.assign([],t)).length;do{for(var r=0;r<e;r++)t.push(t[r])}while(--n>0);return t}var B,I=function(){function t(e){n(this,t),this.list=e,this.length=e.length}return r(t,[{key:"setAttribute",value:function(t,n){for(var e=this.list,r=0;r<this.length;r++)e[r].setAttribute(t,n)}},{key:"removeAttribute",value:function(t){for(var n=this.list,e=0;e<this.length;e++)n[e].removeAttribute(t)}},{key:"style",value:function(t,n){for(var e=this.list,r=0;r<this.length;r++)e[r].style[t]=n}}]),t}(),j=/-./g,P=function(t,n){return n.toUpperCase()};function F(t){return"function"==typeof t?t:m}function R(t){return t?"function"==typeof t?t:Array.isArray(t)?function(t){var n=arguments.length>1&&void 0!==arguments[1]?arguments[1]:s;if(!Array.isArray(t))return n;switch(t.length){case 1:return y(t[0])||n;case 2:return y(t[0],t[1])||n;case 4:return h(t[0],t[1],t[2],t[3])||n}return n}(t,null):function(t,n){var e=arguments.length>2&&void 0!==arguments[2]?arguments[2]:s;switch(t){case"linear":return s;case"steps":return y(n.steps||1,n.jump||0)||e;case"bezier":case"cubic-bezier":return h(n.x1||0,n.y1||0,n.x2||0,n.y2||0)||e}return e}(t.type,t.value,null):null}function T(t,n,e){var r=arguments.length>3&&void 0!==arguments[3]&&arguments[3],i=n.length-1;if(t<=n[0].t)return r?[0,0,n[0].v]:n[0].v;if(t>=n[i].t)return r?[i,1,n[i].v]:n[i].v;var u,o=n[0],a=null;for(u=1;u<=i;u++){if(!(t>n[u].t)){a=n[u];break}o=n[u]}return null==a?r?[i,1,n[i].v]:n[i].v:o.t===a.t?r?[u,1,a.v]:a.v:(t=(t-o.t)/(a.t-o.t),o.e&&(t=o.e(t)),r?[u,t,e(t,o.v,a.v)]:e(t,o.v,a.v))}function q(t,n){var e=arguments.length>2&&void 0!==arguments[2]?arguments[2]:null;return t&&t.length?"function"!=typeof n?null:("function"!=typeof e&&(e=null),function(r){var i=T(r,t,n);return null!=i&&e&&(i=e(i)),i}):null}function C(t,n){return t.t-n.t}function V(n,e,r,i,u){var o,a="@"===r[0],l="#"===r[0],f=B[r],s=m;switch(a?(o=r.substr(1),r=o.replace(j,P)):l&&(r=r.substr(1)),t(f)){case"function":if(s=f(i,u,T,R,r,a,e,n),l)return s;break;case"string":s=q(i,F(f));break;case"object":if((s=q(i,F(f.i),f.f))&&"function"==typeof f.u)return f.u(e,s,r,a,n)}return s?function(t,n,e){var r=arguments.length>3&&void 0!==arguments[3]&&arguments[3];if(r)return t instanceof I?function(r){return t.style(n,e(r))}:function(r){return t.style[n]=e(r)};if(Array.isArray(n)){var i=n.length;return function(r){var u=e(r);if(null==u)for(var o=0;o<i;o++)t[o].removeAttribute(n);else for(var a=0;a<i;a++)t[a].setAttribute(n,u)}}return function(r){var i=e(r);null==i?t.removeAttribute(n):t.setAttribute(n,i)}}(e,r,s,a):null}function N(n,e,r,i){if(!i||"object"!==t(i))return null;var u=null,o=null;return Array.isArray(i)?o=function(t){if(!t||!t.length)return null;for(var n=0;n<t.length;n++)t[n].e&&(t[n].e=R(t[n].e));return t.sort(C)}(i):(o=i.keys,u=i.data||null),o?V(n,e,r,o,u):null}function z(t,n,e){if(!e)return null;var r=[];for(var i in e)if(e.hasOwnProperty(i)){var u=N(t,n,i,e[i]);u&&r.push(u)}return r.length?r:null}function D(t,n){if(!n.duration||n.duration<0)return null;var e=function(t,n){if(!n)return null;var e=[];if(Array.isArray(n))for(var r=n.length,i=0;i<r;i++){var u=n[i];if(2===u.length){var o=null;if("string"==typeof u[0])o=t.getElementById(u[0]);else if(Array.isArray(u[0])){o=[];for(var a=0;a<u[0].length;a++)if("string"==typeof u[0][a]){var l=t.getElementById(u[0][a]);l&&o.push(l)}o=o.length?1===o.length?o[0]:new I(o):null}if(o){var f=z(t,o,u[1]);f&&(e=e.concat(f))}}}else for(var s in n)if(n.hasOwnProperty(s)){var c=t.getElementById(s);if(c){var h=z(t,c,n[s]);h&&(e=e.concat(h))}}return e.length?e:null}(t,n.elements);return e?function(t,n){var e=arguments.length>2&&void 0!==arguments[2]?arguments[2]:1/0,r=arguments.length>3&&void 0!==arguments[3]?arguments[3]:1,i=arguments.length>4&&void 0!==arguments[4]&&arguments[4],u=arguments.length>5&&void 0!==arguments[5]?arguments[5]:1,o=t.length,a=r>0?n:0;i&&e%2==0&&(a=n-a);var l=null;return function(f,s){var c=f%n,h=1+(f-c)/n;s*=r,i&&h%2==0&&(s=-s);var v=!1;if(h>e)c=a,v=!0,-1===u&&(c=r>0?0:n);else if(s<0&&(c=n-c),c===l)return!1;l=c;for(var d=0;d<o;d++)t[d](c);return v}}(e,n.duration,n.iterations||1/0,n.direction||1,!!n.alternate,n.fill||1):null}function L(t,n){if(B=n,!t||!t.root||!Array.isArray(t.animations))return null;var e=window.document.getElementById(t.root);if(!e)return null;var r=t.animations.map((function(t){return D(e,t)})).filter((function(t){return!!t}));return r.length?{element:e,animations:r,animationSettings:t.animationSettings,options:t.options||void 0}:null}var U=function(){function t(e,r){var i=arguments.length>2&&void 0!==arguments[2]?arguments[2]:{};n(this,t),this._id=0,this._running=!1,this._rollingBack=!1,this._animations=e,this.duration=r.duration,this.alternate=r.alternate,this.fill=r.fill,this.iterations=r.iterations,this.direction=i.direction||1,this.speed=i.speed||1,this.fps=i.fps||100,this.offset=i.offset||0,this.rollbackStartOffset=0}return r(t,[{key:"_rollback",value:function(){var t=this,n=1/0,e=null;this.rollbackStartOffset=this.offset,this._rollingBack||(this._rollingBack=!0,this._running=!0);this._id=window.requestAnimationFrame((function r(i){if(t._rollingBack){null==e&&(e=i);var u=i-e,o=t.rollbackStartOffset-u,a=Math.round(o*t.speed);if(a>t.duration&&n!=1/0){var l=!!t.alternate&&a/t.duration%2>1,f=a%t.duration;a=(f+=l?t.duration:0)||t.duration}var s=t.fps?1e3/t.fps:0,c=Math.max(0,a);if(c<n-s){t.offset=c,n=c;for(var h=t._animations,v=h.length,d=0;d<v;d++)h[d](c,t.direction)}var y=!1;if(t.iterations>0&&-1===t.fill){var g=t.iterations*t.duration,p=g==a;a=p?0:a,t.offset=p?0:t.offset,y=a>g}a>0&&t.offset>=a&&!y?t._id=window.requestAnimationFrame(r):t.stop()}}))}},{key:"_start",value:function(){var t=this,n=arguments.length>0&&void 0!==arguments[0]?arguments[0]:0,e=-1/0,r=null,i={},u=function u(o){t._running=!0,null==r&&(r=o);var a=Math.round((o-r+n)*t.speed),l=t.fps?1e3/t.fps:0;if(a>e+l&&!t._rollingBack){t.offset=a,e=a;for(var f=t._animations,s=f.length,c=0,h=0;h<s;h++)i[h]?c++:(i[h]=f[h](a,t.direction),i[h]&&c++);if(c===s)return void t._stop()}t._id=window.requestAnimationFrame(u)};this._id=window.requestAnimationFrame(u)}},{key:"_stop",value:function(){this._id&&window.cancelAnimationFrame(this._id),this._running=!1,this._rollingBack=!1}},{key:"play",value:function(){!this._rollingBack&&this._running||(this._rollingBack=!1,this.rollbackStartOffset>this.duration&&(this.offset=this.rollbackStartOffset-(this.rollbackStartOffset-this.offset)%this.duration,this.rollbackStartOffset=0),this._start(this.offset))}},{key:"stop",value:function(){this._stop(),this.offset=0,this.rollbackStartOffset=0;var t=this.direction,n=this._animations;window.requestAnimationFrame((function(){for(var e=0;e<n.length;e++)n[e](0,t)}))}},{key:"reachedToEnd",value:function(){return this.iterations>0&&this.offset>=this.iterations*this.duration}},{key:"restart",value:function(){this._stop(),this.offset=0,this._start()}},{key:"pause",value:function(){this._stop()}},{key:"reverse",value:function(){this.direction=-this.direction}}],[{key:"build",value:function(n,e){return(n=L(n,e))?{el:n.element,options:n.options||{},player:new t(n.animations,n.animationSettings,n.options)}:null}}]),t}();!function(){for(var t=0,n=["ms","moz","webkit","o"],e=0;e<n.length&&!window.requestAnimationFrame;++e)window.requestAnimationFrame=window[n[e]+"RequestAnimationFrame"],window.cancelAnimationFrame=window[n[e]+"CancelAnimationFrame"]||window[n[e]+"CancelRequestAnimationFrame"];window.requestAnimationFrame||(window.requestAnimationFrame=function(n){var e=Date.now(),r=Math.max(0,16-(e-t)),i=window.setTimeout((function(){n(e+r)}),r);return t=e+r,i},window.cancelAnimationFrame=window.clearTimeout)}();var W=function(t,n){var e=!1,r=null;return function(i){e&&clearTimeout(e),e=setTimeout((function(){return function(){for(var i=0,u=window.innerHeight,o=0,a=window.innerWidth,l=t.parentNode;l instanceof Element;){var f=window.getComputedStyle(l);if("visible"!==f.overflowY||"visible"!==f.overflowX){var s=l.getBoundingClientRect();"visible"!==f.overflowY&&(i=Math.max(i,s.top),u=Math.min(u,s.bottom)),"visible"!==f.overflowX&&(o=Math.max(o,s.left),a=Math.min(a,s.right))}if(l===l.parentNode)break;l=l.parentNode}e=!1;var c=t.getBoundingClientRect(),h=Math.min(c.height,Math.max(0,i-c.top)),v=Math.min(c.height,Math.max(0,c.bottom-u)),d=Math.min(c.width,Math.max(0,o-c.left)),y=Math.min(c.width,Math.max(0,c.right-a)),g=(c.height-h-v)/c.height,p=(c.width-d-y)/c.width,m=Math.round(g*p*100);null!==r&&r===m||(r=m,n(m))}()}),100)}},Y=function(){function t(e,r,i){n(this,t),r=Math.max(1,r||1),r=Math.min(r,100),this.el=e,this.onTresholdChange=i&&i.call?i:function(){},this.tresholdPercent=r||1,this.currentVisibility=null,this.visibilityCalculator=W(e,this.onVisibilityUpdate.bind(this)),this.bindScrollWatchers(),this.visibilityCalculator()}return r(t,[{key:"bindScrollWatchers",value:function(){for(var t=this.el.parentNode;t&&(t.addEventListener("scroll",this.visibilityCalculator),t!==t.parentNode&&t!==document);)t=t.parentNode}},{key:"onVisibilityUpdate",value:function(t){var n=this.currentVisibility>=this.tresholdPercent,e=t>=this.tresholdPercent;if(null===this.currentVisibility||n!==e)return this.currentVisibility=t,void this.onTresholdChange(e);this.currentVisibility=t}}]),t}(),G=/\.0+$/g;function H(t){return Number.isInteger(t)?t+"":t.toFixed(6).replace(G,"")}function X(t){var n=arguments.length>1&&void 0!==arguments[1]?arguments[1]:" ";return t&&t.length?t.map(H).join(n):""}function $(t){return H(t.x)+","+H(t.y)}function Q(t){return t?null==t.a||t.a>=1?"rgb("+t.r+","+t.g+","+t.b+")":"rgba("+t.r+","+t.g+","+t.b+","+t.a+")":"transparent"}var Z={f:null,i:k,u:function(t,n){return function(e){var r=n(e);t.setAttribute("rx",H(r.x)),t.setAttribute("ry",H(r.y))}}},J={f:null,i:function(t,n,e){return 0===t?n:1===t?e:{width:w(t,n.width,e.width),height:w(t,n.height,e.height)}},u:function(t,n){return function(e){var r=n(e);t.setAttribute("width",H(r.width)),t.setAttribute("height",H(r.height))}}},K=Math.sin,tt=Math.cos,nt=Math.acos,et=Math.asin,rt=Math.tan,it=Math.atan2,ut=Math.PI/180,ot=180/Math.PI,at=Math.sqrt,lt=function(){function t(){var e=arguments.length>0&&void 0!==arguments[0]?arguments[0]:1,r=arguments.length>1&&void 0!==arguments[1]?arguments[1]:0,i=arguments.length>2&&void 0!==arguments[2]?arguments[2]:0,u=arguments.length>3&&void 0!==arguments[3]?arguments[3]:1,o=arguments.length>4&&void 0!==arguments[4]?arguments[4]:0,a=arguments.length>5&&void 0!==arguments[5]?arguments[5]:0;n(this,t),this.m=[e,r,i,u,o,a],this.i=null,this.w=null,this.s=null}return r(t,[{key:"point",value:function(t,n){var e=this.m;return{x:e[0]*t+e[2]*n+e[4],y:e[1]*t+e[3]*n+e[5]}}},{key:"translateSelf",value:function(){var t=arguments.length>0&&void 0!==arguments[0]?arguments[0]:0,n=arguments.length>1&&void 0!==arguments[1]?arguments[1]:0;if(!t&&!n)return this;var e=this.m;return e[4]+=e[0]*t+e[2]*n,e[5]+=e[1]*t+e[3]*n,this.w=this.s=this.i=null,this}},{key:"rotateSelf",value:function(){var t=arguments.length>0&&void 0!==arguments[0]?arguments[0]:0;if(t%=360){var n=K(t*=ut),e=tt(t),r=this.m,i=r[0],u=r[1];r[0]=i*e+r[2]*n,r[1]=u*e+r[3]*n,r[2]=r[2]*e-i*n,r[3]=r[3]*e-u*n,this.w=this.s=this.i=null}return this}},{key:"scaleSelf",value:function(){var t=arguments.length>0&&void 0!==arguments[0]?arguments[0]:1,n=arguments.length>1&&void 0!==arguments[1]?arguments[1]:1;if(1!==t||1!==n){var e=this.m;e[0]*=t,e[1]*=t,e[2]*=n,e[3]*=n,this.w=this.s=this.i=null}return this}},{key:"skewSelf",value:function(t,n){if(n%=360,(t%=360)||n){var e=this.m,r=e[0],i=e[1],u=e[2],o=e[3];t&&(t=rt(t*ut),e[2]+=r*t,e[3]+=i*t),n&&(n=rt(n*ut),e[0]+=u*n,e[1]+=o*n),this.w=this.s=this.i=null}return this}},{key:"resetSelf",value:function(){var t=arguments.length>0&&void 0!==arguments[0]?arguments[0]:1,n=arguments.length>1&&void 0!==arguments[1]?arguments[1]:0,e=arguments.length>2&&void 0!==arguments[2]?arguments[2]:0,r=arguments.length>3&&void 0!==arguments[3]?arguments[3]:1,i=arguments.length>4&&void 0!==arguments[4]?arguments[4]:0,u=arguments.length>5&&void 0!==arguments[5]?arguments[5]:0,o=this.m;return o[0]=t,o[1]=n,o[2]=e,o[3]=r,o[4]=i,o[5]=u,this.w=this.s=this.i=null,this}},{key:"recomposeSelf",value:function(){var t=arguments.length>0&&void 0!==arguments[0]?arguments[0]:null,n=arguments.length>1&&void 0!==arguments[1]?arguments[1]:null,e=arguments.length>2&&void 0!==arguments[2]?arguments[2]:null,r=arguments.length>3&&void 0!==arguments[3]?arguments[3]:null,i=arguments.length>4&&void 0!==arguments[4]?arguments[4]:null;return this.isIdentity||this.resetSelf(),t&&(t.x||t.y)&&this.translateSelf(t.x,t.y),n&&this.rotateSelf(n),e&&(e.x&&this.skewSelf(e.x,0),e.y&&this.skewSelf(0,e.y)),!r||1===r.x&&1===r.y||this.scaleSelf(r.x,r.y),i&&(i.x||i.y)&&this.translateSelf(i.x,i.y),this}},{key:"decompose",value:function(){var t=arguments.length>0&&void 0!==arguments[0]?arguments[0]:0,n=arguments.length>1&&void 0!==arguments[1]?arguments[1]:0,e=this.m,r=e[0]*e[0]+e[1]*e[1],i=[[e[0],e[1]],[e[2],e[3]]],u=at(r);if(0===u)return{origin:{x:e[4],y:e[5]},translate:{x:t,y:n},scale:{x:0,y:0},skew:{x:0,y:0},rotate:0};i[0][0]/=u,i[0][1]/=u;var o=e[0]*e[3]-e[1]*e[2]<0;o&&(u=-u);var a=i[0][0]*i[1][0]+i[0][1]*i[1][1];i[1][0]-=i[0][0]*a,i[1][1]-=i[0][1]*a;var l=at(i[1][0]*i[1][0]+i[1][1]*i[1][1]);if(0===l)return{origin:{x:e[4],y:e[5]},translate:{x:t,y:n},scale:{x:u,y:0},skew:{x:0,y:0},rotate:0};i[1][0]/=l,i[1][1]/=l,a/=l;var f=0;return i[1][1]<0?(f=nt(i[1][1])*ot,i[0][1]<0&&(f=360-f)):f=et(i[0][1])*ot,o&&(f=-f),a=it(a,at(i[0][0]*i[0][0]+i[0][1]*i[0][1]))*ot,{origin:{x:e[4],y:e[5]},translate:{x:t,y:n},scale:{x:u,y:l},skew:{x:a,y:0},rotate:f}}},{key:"toString",value:function(){return null===this.s&&(this.s="matrix("+this.m.map(st).join(" ")+")"),this.s}},{key:"determinant",get:function(){var t=this.m;return t[0]*t[3]-t[1]*t[2]}},{key:"isIdentity",get:function(){if(null===this.i){var t=this.m;this.i=1===t[0]&&0===t[1]&&0===t[2]&&1===t[3]&&0===t[4]&&0===t[5]}return this.i}}]),t}(),ft=/\.0+$/;function st(t){return Number.isInteger(t)?t:t.toFixed(14).replace(ft,"")}Object.freeze({M:2,L:2,Z:0,H:1,V:1,C:6,Q:4,T:2,S:4,A:7});function ct(t,n,e){return t+(n-t)*e}function ht(t,n,e){var r=arguments.length>3&&void 0!==arguments[3]&&arguments[3],i={x:ct(t.x,n.x,e),y:ct(t.y,n.y,e)};return r&&(i.a=vt(t,n)),i}function vt(t,n){return Math.atan2(n.y-t.y,n.x-t.x)}function dt(t,n,e,r){var i=1-r;return i*i*t+2*i*r*n+r*r*e}function yt(t,n,e,r){return 2*(1-r)*(n-t)+2*r*(e-n)}function gt(t,n,e,r){var i=arguments.length>4&&void 0!==arguments[4]&&arguments[4],u={x:dt(t.x,n.x,e.x,r),y:dt(t.y,n.y,e.y,r)};return i&&(u.a=pt(t,n,e,r)),u}function pt(t,n,e,r){return Math.atan2(yt(t.y,n.y,e.y,r),yt(t.x,n.x,e.x,r))}function mt(t,n,e,r,i){var u=i*i;return i*u*(r-t+3*(n-e))+3*u*(t+e-2*n)+3*i*(n-t)+t}function bt(t,n,e,r,i){var u=1-i;return 3*(u*u*(n-t)+2*u*i*(e-n)+i*i*(r-e))}function wt(t,n,e,r,i){var u=arguments.length>5&&void 0!==arguments[5]&&arguments[5],o={x:mt(t.x,n.x,e.x,r.x,i),y:mt(t.y,n.y,e.y,r.y,i)};return u&&(o.a=xt(t,n,e,r,i)),o}function xt(t,n,e,r,i){return Math.atan2(bt(t.y,n.y,e.y,r.y,i),bt(t.x,n.x,e.x,r.x,i))}function kt(t,n,e){var r=arguments.length>3&&void 0!==arguments[3]&&arguments[3];if(_t(n)){if(St(e))return gt(n,e.start,e,t,r)}else if(_t(e)){if(n.end)return gt(n,n.end,e,t,r)}else{if(n.end)return e.start?wt(n,n.end,e.start,e,t,r):gt(n,n.end,e,t,r);if(e.start)return gt(n,e.start,e,t,r)}return ht(n,e,t,r)}function At(t,n,e){var r=kt(t,n,e,!0);return r.a=function(t){var n=arguments.length>1&&void 0!==arguments[1]&&arguments[1];return n?t+Math.PI:t}(r.a)/p,r}function _t(t){return!t.type||"corner"===t.type}function St(t){return null!=t.start&&!_t(t)}var Mt=new lt;var Ot={f:function(t){return t?t.join(" "):""},i:function(n,e,r){if(0===n)return e;if(1===n)return r;var i=e.length;if(i!==r.length)return m(n,e,r);for(var u,o=new Array(i),a=0;a<i;a++){if((u=t(e[a]))!==t(r[a]))return m(n,e,r);if("number"===u)o[a]=b(n,e[a],r[a]);else{if(e[a]!==r[a])return m(n,e,r);o[a]=e[a]}}return o}},Et={f:null,i:M,u:function(t,n){return function(e){var r=n(e);t.setAttribute("x1",H(r[0])),t.setAttribute("y1",H(r[1])),t.setAttribute("x2",H(r[2])),t.setAttribute("y2",H(r[3]))}}},Bt={f:H,i:b},It={f:H,i:function(t,n,e){var r=b(t,n,e);return r<=0?0:r>=1?1:r}},jt={f:X,i:function(t,n,e){var r,i,u,o=n.length,a=e.length;if(o!==a)if(0===o)n=O(o=a,0);else if(0===a)a=o,e=O(o,0);else{var l=(u=(r=o)*(i=a)/function(t,n){for(var e;n;)e=n,n=t%n,t=e;return t||1}(r,i))<0?-u:u;n=E(n,Math.floor(l/o)),e=E(e,Math.floor(l/a)),o=a=l}for(var f=[],s=0;s<o;s++)f.push(g(w(t,n[s],e[s]),6));return f}};function Pt(t,n,e,r,i,u,o,a){return n=function(t,n,e){for(var r,i,u,o=t.length-1,a={},l=0;l<=o;l++)(r=t[l]).e&&(r.e=n(r.e)),r.v&&"g"===(i=r.v).t&&i.r&&(u=e.getElementById(i.r))&&(a[i.r]=u.querySelectorAll("stop"));return a}(t,r,a),function(r){var i,u=e(r,t,Ft);return u?"c"===u.t?Q(u.v):"g"===u.t?(n[u.r]&&function(t,n){for(var e=0,r=t.length;e<r;e++)t[e].setAttribute("stop-color",Q(n[e]))}(n[u.r],u.v),(i=u.r)?"url(#"+i+")":"none"):"none":"none"}}function Ft(t,n,e){if(0===t)return n;if(1===t)return e;if(n&&e){var r=n.t;if(r===e.t)switch(n.t){case"c":return{t:r,v:_(t,n.v,e.v)};case"g":if(n.r===e.r)return{t:r,v:S(t,n.v,e.v),r:n.r}}}return m(t,n,e)}var Rt={blur:k,brightness:w,contrast:w,"drop-shadow":function(t,n,e){return 0===t?n:1===t?e:{blur:k(t,n.blur,e.blur),offset:x(t,n.offset,e.offset),color:_(t,n.color,e.color)}},grayscale:w,"hue-rotate":b,invert:w,opacity:w,saturate:w,sepia:w};function Tt(t,n,e){if(0===t)return n;if(1===t)return e;var r=n.length;if(r!==e.length)return m(t,n,e);for(var i,u=[],o=0;o<r;o++){if(n[o].type!==e[o].type)return n;if(!(i=Rt[n[o].type]))return m(t,n,e);u.push({type:n.type,value:i(t,n[o].value,e[o].value)})}return u}var qt={blur:function(t){return t?function(n){t.setAttribute("stdDeviation",$(n))}:null},brightness:function(t,n,e){return(t=Vt(e,n))?function(n){n=H(n),t.map((function(t){return t.setAttribute("slope",n)}))}:null},contrast:function(t,n,e){return(t=Vt(e,n))?function(n){var e=H((1-n)/2);n=H(n),t.map((function(t){t.setAttribute("slope",n),t.setAttribute("intercept",e)}))}:null},"drop-shadow":function(t,n,e){var r=e.getElementById(n+"-blur");if(!r)return null;var i=e.getElementById(n+"-offset");if(!i)return null;var u=e.getElementById(n+"-flood");return u?function(t){r.setAttribute("stdDeviation",$(t.blur)),i.setAttribute("dx",H(t.offset.x)),i.setAttribute("dy",H(t.offset.y)),u.setAttribute("flood-color",Q(t.color))}:null},grayscale:function(t){return t?function(n){t.setAttribute("values",X(function(t){return[.2126+.7874*(t=1-t),.7152-.7152*t,.0722-.0722*t,0,0,.2126-.2126*t,.7152+.2848*t,.0722-.0722*t,0,0,.2126-.2126*t,.7152-.7152*t,.0722+.9278*t,0,0,0,0,0,1,0]}(n)))}:null},"hue-rotate":function(t){return t?function(n){return t.setAttribute("values",H(n))}:null},invert:function(t,n,e){return(t=Vt(e,n))?function(n){n=H(n)+" "+H(1-n),t.map((function(t){return t.setAttribute("tableValues",n)}))}:null},opacity:function(t,n,e){return(t=e.getElementById(n+"-A"))?function(n){return t.setAttribute("tableValues","0 "+H(n))}:null},saturate:function(t){return t?function(n){return t.setAttribute("values",H(n))}:null},sepia:function(t){return t?function(n){return t.setAttribute("values",X(function(t){return[.393+.607*(t=1-t),.769-.769*t,.189-.189*t,0,0,.349-.349*t,.686+.314*t,.168-.168*t,0,0,.272-.272*t,.534-.534*t,.131+.869*t,0,0,0,0,0,1,0]}(n)))}:null}};var Ct=["R","G","B"];function Vt(t,n){var e=Ct.map((function(e){return t.getElementById(n+"-"+e)||null}));return-1!==e.indexOf(null)?null:e}var Nt={fill:Pt,"fill-opacity":It,stroke:Pt,"stroke-opacity":It,"stroke-width":Bt,"stroke-dashoffset":{f:H,i:b},"stroke-dasharray":jt,opacity:It,transform:function(n,e,r,i){if(!(n=function(n,e){if(!n||"object"!==t(n))return null;var r=!1;for(var i in n)n.hasOwnProperty(i)&&(n[i]&&n[i].length?(n[i].forEach((function(t){t.e&&(t.e=e(t.e))})),r=!0):delete n[i]);return r?n:null}(n,i)))return null;var u=function(t,i,u){var o=arguments.length>3&&void 0!==arguments[3]?arguments[3]:null;return n[t]?r(i,n[t],u):e&&e[t]?e[t]:o};return e&&e.a&&n.o?function(t){var e=r(t,n.o,At);return Mt.recomposeSelf(e,u("r",t,b,0)+e.a,u("k",t,x),u("s",t,x),u("t",t,x)).toString()}:function(t){return Mt.recomposeSelf(u("o",t,kt,null),u("r",t,b,0),u("k",t,x),u("s",t,x),u("t",t,x)).toString()}},"#filter":function(t,n,e,r,i,u,o,a){if(!n.items||!t||!t.length)return null;var l=function(t,n){var e=(t=t.map((function(t){return t&&qt[t[0]]?(n.getElementById(t[1]),qt[t[0]](n.getElementById(t[1]),t[1],n)):null}))).length;return function(n){for(var r=0;r<e;r++)t[r]&&t[r](n[r].value)}}(n.items,a);return l?(t=function(t,n){return t.map((function(t){return t.e=n(t.e),t}))}(t,r),function(n){l(e(n,t,Tt))}):null},"#line":Et,points:{f:X,i:M},d:Ot,r:Bt,"#size":J,"#radius":Z,_:function(t,n){if(Array.isArray(t))for(var e=0;e<t.length;e++)this[t[e]]=n;else this[t]=n}};return function(t){!function(t,n){if("function"!=typeof n&&null!==n)throw new TypeError("Super expression must either be null or a function");t.prototype=Object.create(n&&n.prototype,{constructor:{value:t,writable:!0,configurable:!0}}),n&&u(t,n)}(o,t);var e=a(o);function o(){return n(this,o),e.apply(this,arguments)}return r(o,null,[{key:"build",value:function(t){var n=l(i(o),"build",this).call(this,t,Nt),e=n.el,r=n.options,u=n.player;return function(t,n,e){if("click"===e.start){return void n.addEventListener("click",(function(){switch(e.click){case"freeze":return!t._running&&t.reachedToEnd()&&(t.offset=0),t._running?t.pause():t.play();case"restart":return t.offset>0?t.restart():t.play();case"reverse":var n=!t._rollingBack&&t._running,r=t.reachedToEnd();return n||r&&1===t.fill?(t.pause(),r&&(t.offset=t.duration-1),t._rollback()):r?t.restart():t.play();case"none":default:return!t._running&&t.offset?t.restart():t.play()}}))}if("hover"===e.start)return n.addEventListener("mouseenter",(function(){return t.reachedToEnd()?t.restart():t.play()})),void n.addEventListener("mouseleave",(function(){switch(e.hover){case"freeze":return t.pause();case"reset":return t.stop();case"reverse":return t.pause(),t._rollback();case"none":default:return}}));if("scroll"===e.start)return void new Y(n,e.scroll||25,(function(n){n?t.reachedToEnd()?t.restart():t.play():t.pause()}));t.play()}(u,e,r),u}}]),o}(U)}));
__SVGATOR_PLAYER__.build({"root":"e1svrhm8a3zi1","animations":[{"duration":2000,"direction":1,"iterations":1,"fill":1,"alternate":false,"elements":{"e1svrhm8a3zi7":{"transform":{"data":{"o":{"x":237.15000915527344,"y":66.9000015258789,"type":"corner"},"t":{"x":-237.15000915527344,"y":-66.9000015258789}},"keys":{"r":[{"t":0,"v":0,"e":[0.42,0,0.58,1]},{"t":2000,"v":360}]}}},"e1svrhm8a3zi8":{"transform":{"data":{"o":{"x":211.20000457763672,"y":32.35000038146973,"type":"corner"},"t":{"x":-211.20000457763672,"y":-32.35000038146973}},"keys":{"r":[{"t":0,"v":0,"e":[0.42,0,0.58,1]},{"t":2000,"v":-360}]}}},"e1svrhm8a3zi14":{"stroke-dashoffset":[{"t":0,"v":0,"e":[0.42,0,0.58,1]},{"t":2000,"v":-96}]},"e1svrhm8a3zi15":{"transform":{"data":{"t":{"x":-554.2000122070312,"y":-71.10000228881836}},"keys":{"o":[{"t":0,"v":{"x":554.2000122070312,"y":71.10000228881836,"type":"corner"},"e":[0.42,0,0.58,1]},{"t":1000,"v":{"x":547,"y":71.10000228881836,"type":"corner"},"e":[0.42,0,0.58,1]},{"t":2000,"v":{"x":554.2000122070312,"y":71.10000228881836,"type":"corner"}}]}}},"e1svrhm8a3zi16":{"transform":{"data":{"t":{"x":-568.2000122070312,"y":-37.75}},"keys":{"o":[{"t":0,"v":{"x":568.2000122070312,"y":37.75,"type":"corner"},"e":[0.42,0,0.58,1]},{"t":1000,"v":{"x":563,"y":32,"type":"corner"},"e":[0.42,0,0.58,1]},{"t":2000,"v":{"x":568.2000122070312,"y":37.75,"type":"corner"}}]}}},"e1svrhm8a3zi17":{"transform":{"data":{"t":{"x":-601.1499938964844,"y":-22.75}},"keys":{"o":[{"t":0,"v":{"x":601.1499938964844,"y":22.75,"type":"corner"},"e":[0.42,0,0.58,1]},{"t":1000,"v":{"x":601.1499938964844,"y":14,"type":"corner"},"e":[0.42,0,0.58,1]},{"t":2000,"v":{"x":601.1499938964844,"y":22.75,"type":"corner"}}]}}},"e1svrhm8a3zi18":{"transform":{"data":{"t":{"x":-634.5499877929688,"y":-36.75}},"keys":{"o":[{"t":0,"v":{"x":634.5499877929688,"y":36.75,"type":"corner"},"e":[0.42,0,0.58,1]},{"t":1000,"v":{"x":641,"y":30,"type":"corner"},"e":[0.42,0,0.58,1]},{"t":2000,"v":{"x":634.5499877929688,"y":36.75,"type":"corner"}}]}}},"e1svrhm8a3zi19":{"transform":{"data":{"t":{"x":-649.5,"y":-69.70000076293945}},"keys":{"o":[{"t":0,"v":{"x":649.5,"y":69.70000076293945,"type":"corner"},"e":[0.42,0,0.58,1]},{"t":1000,"v":{"x":657,"y":69.70000076293945,"type":"corner"},"e":[0.42,0,0.58,1]},{"t":2000,"v":{"x":649.5,"y":69.70000076293945,"type":"corner"}}]}}},"e1svrhm8a3zi25":{"stroke-dashoffset":[{"t":0,"v":0,"e":[0.42,0,0.58,1]},{"t":1000,"v":-14,"e":[0.42,0,0.58,1]}]},"e1svrhm8a3zi26":{"stroke-dashoffset":[{"t":720,"v":0,"e":[0.42,0,0.58,1]},{"t":1720,"v":14}]},"e1svrhm8a3zi27":{"stroke-dashoffset":[{"t":660,"v":0,"e":[0.42,0,0.58,1]},{"t":1660,"v":14,"e":[0.42,0,0.58,1]}]},"e1svrhm8a3zi28":{"stroke-dashoffset":[{"t":600,"v":0,"e":[0.42,0,0.58,1]},{"t":1600,"v":14}]},"e1svrhm8a3zi29":{"stroke-dashoffset":[{"t":540,"v":0,"e":[0.42,0,0.58,1]},{"t":1540,"v":14}]},"e1svrhm8a3zi30":{"stroke-dashoffset":[{"t":480,"v":0,"e":[0.42,0,0.58,1]},{"t":1480,"v":14}]},"e1svrhm8a3zi31":{"stroke-dashoffset":[{"t":420,"v":0,"e":[0.42,0,0.58,1]},{"t":1420,"v":14}]},"e1svrhm8a3zi32":{"stroke-dashoffset":[{"t":360,"v":0,"e":[0.42,0,0.58,1]},{"t":1360,"v":14}]},"e1svrhm8a3zi33":{"stroke-dashoffset":[{"t":300,"v":0,"e":[0.42,0,0.58,1]},{"t":1300,"v":14}]},"e1svrhm8a3zi34":{"stroke-dashoffset":[{"t":240,"v":0,"e":[0.42,0,0.58,1]},{"t":1240,"v":14}]},"e1svrhm8a3zi35":{"stroke-dashoffset":[{"t":180,"v":0,"e":[0.42,0,0.58,1]},{"t":1180,"v":14}]},"e1svrhm8a3zi36":{"stroke-dashoffset":[{"t":120,"v":0,"e":[0.42,0,0.58,1]},{"t":1120,"v":14}]},"e1svrhm8a3zi37":{"stroke-dashoffset":[{"t":60,"v":0,"e":[0.42,0,0.58,1]},{"t":1060,"v":14}]},"e1svrhm8a3zi41":{"transform":{"data":{"t":{"x":-417.3207244873047,"y":-42.549997329711914}},"keys":{"o":[{"t":0,"v":{"x":417.3207244873047,"y":42.549997329711914,"type":"corner"},"e":[0.42,0,0.58,1]},{"t":1000,"v":{"x":417.10001380730466,"y":28.849997329711936,"type":"corner"},"e":[0.42,0,0.58,1]},{"t":2000,"v":{"x":417.3207244873047,"y":42.549997329711914,"type":"corner"}}]}}},"e1svrhm8a3zi42":{"transform":{"data":{"o":{"x":418,"y":67,"type":"corner"},"t":{"x":-418,"y":-68}},"keys":{"r":[{"t":0,"v":0,"e":[0.42,0,0.58,1]},{"t":1000,"v":20,"e":[0.42,0,0.58,1]},{"t":2000,"v":0}]}}},"e1svrhm8a3zi43":{"transform":{"data":{"o":{"x":417.0999755859375,"y":67,"type":"corner"},"t":{"x":-417.0999755859375,"y":-66}},"keys":{"r":[{"t":0,"v":0,"e":[0.42,0,0.58,1]},{"t":1000,"v":-87,"e":[0.42,0,0.58,1]},{"t":2000,"v":0}]}}}}}],"options":{"start":"hover","hover":"none","click":"freeze","scroll":25,"exportedIds":"unique","title":"workflow"},"animationSettings":{"duration":2000,"direction":1,"iterations":1,"fill":1,"alternate":false}})]]></script></svg>